{"title":"Veronica Radke - Something Sweet - HDLove","uid":11241836,"size":220262448,"categoryP":"porn","categoryS":"movie_clips","magnet":"?xt=urn:btih:602d435b430c6614ab6d66d017821241143cbdd6&amp;dn=Veronica+Radke+-+Something+Sweet+-+HDLove&amp;tr=udp%3A%2F%2Ftracker.openbittorrent.com%3A80&amp;tr=udp%3A%2F%2Fopen.demonii.com%3A1337&amp;tr=udp%3A%2F%2Ftracker.coppersurfer.tk%3A6969&amp;tr=udp%3A%2F%2Fexodus.desync.com%3A6969","seeders":4,"leechers":1,"uploader":"athklym","files":-1,"time":1413684398,"description":" &lt;a href=&quot;http://bayimg.com/GaCOoAagB&quot; rel=&quot;nofollow&quot; target=&quot;_NEW&quot;&gt;http://bayimg.com/GaCOoAagB&lt;/a&gt;\nVeronica_Radke_Something_Sweet_HDLove.mp4\nFormat                                   : MPEG-4\nFormat profile                           : Base Media\nCodec ID                                 : isom\nFile size                                : 210 MiB\nDuration                                 : 24mn 25s\nOverall bit rate mode                    : Variable\nOverall bit rate                         : 1 202 Kbps\nEncoded date                             : UTC 2014-10-17 18:51:04\nTagged date                              : UTC 2014-10-17 18:51:04\n\nVideo\nID                                       : 1\nFormat                                   : AVC\nFormat/Info                              : Advanced Video Codec\nFormat profile                           : &lt;a class=&quot;__cf_email__&quot; href=&quot;/cdn-cgi/l/email-protection&quot; data-cfemail=&quot;b8f0d1dfd0f8f48b9688&quot;&gt;[email&amp;#160;protected]&lt;/a&gt;&lt;script cf-hash='f9e31' type=&quot;text/javascript&quot;&gt;\n/* &lt;![CDATA[ */!function(){try{var t=&quot;currentScript&quot;in document?document.currentScript:function(){for(var t=document.getElementsByTagName(&quot;script&quot;),e=t.length;e--;)if(t[e].getAttribute(&quot;cf-hash&quot;))return t[e]}();if(t&amp;&amp;t.previousSibling){var e,r,n,i,c=t.previousSibling,a=c.getAttribute(&quot;data-cfemail&quot;);if(a){for(e=&quot;&quot;,r=parseInt(a.substr(0,2),16),n=2;a.length-n;n+=2)i=parseInt(a.substr(n,2),16)^r,e+=String.fromCharCode(i);e=document.createTextNode(e),c.parentNode.replaceChild(e,c)}}}catch(u){}}();/* ]]&gt; */&lt;/script&gt;\nFormat settings, CABAC                   : Yes\nFormat settings, ReFrames                : 4 frames\nCodec ID                                 : avc1\nCodec ID/Info                            : Advanced Video Coding\nDuration                                 : 24mn 25s\nBit rate                                 : 1 167 Kbps\nMaximum bit rate                         : 2 381 Kbps\nWidth                                    : 768 pixels\nHeight                                   : 432 pixels\nDisplay aspect ratio                     : 16:9\nFrame rate mode                          : Constant\nFrame rate                               : 30.000 fps\nColor space                              : YUV\nChroma subsampling                       : 4:2:0\nBit depth                                : 8 bits\nScan type                                : Progressive\nBits/(Pixel*Frame)                       : 0.117\nStream size                              : 204 MiB (97%)\nWriting library                          : x264 core 142 r2431 ac76440\nEncoding settings                        : cabac=1 / ref=3 / deblock=1:0:0 / analyse=0x3:0x113 / me=hex / subme=7 / psy=1 / psy_rd=1.00:0.00 / mixed_ref=1 / me_range=16 / chroma_me=1 / trellis=1 / 8x8dct=1 / cqm=0 / deadzone=21,11 / fast_pskip=1 / chroma_qp_offset=-2 / threads=3 / lookahead_threads=1 / sliced_threads=0 / nr=0 / decimate=1 / interlaced=0 / bluray_compat=0 / constrained_intra=0 / bframes=3 / b_pyramid=2 / b_adapt=1 / b_bias=0 / direct=1 / weightb=1 / open_gop=0 / weightp=2 / keyint=300 / keyint_min=30 / scenecut=40 / intra_refresh=0 / rc_lookahead=40 / rc=2pass / mbtree=1 / bitrate=1167 / ratetol=1.0 / qcomp=0.60 / qpmin=0 / qpmax=69 / qpstep=4 / cplxblur=20.0 / qblur=0.5 / ip_ratio=1.40 / aq=1:1.00\nEncoded date                             : UTC 2014-10-17 18:51:04\nTagged date                              : UTC 2014-10-17 18:51:20\n\nAudio\nID                                       : 2\nFormat                                   : AAC\nFormat/Info                              : Advanced Audio Codec\nFormat profile                           : HE-AAC / LC\nCodec ID                                 : 40\nDuration                                 : 24mn 25s\nBit rate mode                            : Variable\nBit rate                                 : 32.0 Kbps\nMaximum bit rate                         : 40.4 Kbps\nChannel(s)                               : 1 channel\nChannel positions                        : Front: C\nSampling rate                            : 32.0 KHz / 16.0 KHz\nCompression mode                         : Lossy\nStream size                              : 5.59 MiB (3%)\nEncoded date                             : UTC 2014-10-17 18:27:42\nTagged date                              : UTC 2014-10-17 18:51:20","torrent":{"xt":"urn:btih:602d435b430c6614ab6d66d017821241143cbdd6","amp;dn":"Veronica+Radke+-+Something+Sweet+-+HDLove","amp;tr":["udp%3A%2F%2Ftracker.openbittorrent.com%3A80","udp%3A%2F%2Fopen.demonii.com%3A1337","udp%3A%2F%2Ftracker.coppersurfer.tk%3A6969","udp%3A%2F%2Fexodus.desync.com%3A6969"],"infoHash":"602d435b430c6614ab6d66d017821241143cbdd6","infoHashBuffer":{"type":"Buffer","data":[96,45,67,91,67,12,102,20,171,109,102,208,23,130,18,65,20,60,189,214]},"announce":[],"urlList":[]}}